<?xml version="1.0" encoding="UTF-8" standalone="no"?>
<!-- Created with Inkscape (http://www.inkscape.org/) -->

<svg
   version="1.1"
   id="svg60852"
   width="179.35138"
   height="178.32941"
   viewBox="0 0 179.35138 178.32941"
   sodipodi:docname="xpath-sandbox.svg"
   inkscape:version="1.1 (c68e22c387, 2021-05-23)"
   xmlns:inkscape="http://www.inkscape.org/namespaces/inkscape"
   xmlns:sodipodi="http://sodipodi.sourceforge.net/DTD/sodipodi-0.dtd"
   xmlns="http://www.w3.org/2000/svg"
   xmlns:svg="http://www.w3.org/2000/svg">
  <defs
     id="defs60856" />
  <sodipodi:namedview
     id="namedview60854"
     pagecolor="#ffffff"
     bordercolor="#666666"
     borderopacity="1.0"
     inkscape:pageshadow="2"
     inkscape:pageopacity="0.0"
     inkscape:pagecheckerboard="0"
     showgrid="false"
     inkscape:zoom="1.1680935"
     inkscape:cx="-8.9890064"
     inkscape:cy="7.2768147"
     inkscape:window-width="1280"
     inkscape:window-height="961"
     inkscape:window-x="-8"
     inkscape:window-y="-8"
     inkscape:window-maximized="1"
     inkscape:current-layer="g60960" />
  <g
     inkscape:groupmode="layer"
     inkscape:label="Image"
     id="g60858">
    <g
       id="g60960"
       transform="translate(-1.2107026,-0.30267569)">
      <path
         style="fill:#dd519a"
         d="M 9.7958054,176.29316 C 5.87408,173.76617 2.3524779,169.59232 1.3081077,165.07043 1.4345713,116.26606 0.94077532,67.455143 1.6560443,18.656095 0.8556954,10.75649 5.4810681,0.75559502 14.578946,1.1662938 54.17301,0.06299718 93.802099,0.79039982 133.41019,0.61996999 c 12.74396,0.40681121 25.67303,-0.68488258 38.29253,1.29518531 8.55061,3.8774914 8.41823,14.2516887 8.34647,22.2358397 0.41118,47.307904 0.12566,94.619445 0.19333,141.928995 -2.58586,5.58747 -7.1129,10.50945 -12.97188,12.4671 -51.16507,0 -102.330143,0 -153.495217,0 -1.326539,-0.75131 -2.653079,-1.50262 -3.9796176,-2.25393 z M 160.34116,23.544806 c 7.67354,-10.318958 -7.70638,-10.337869 -14.49164,-9.795442 -23.64897,-0.06406 -47.328163,-0.644524 -70.959842,0.304819 -9.635332,-0.973386 -5.803994,13.762048 2.640052,10.005058 27.12202,0.622241 54.29499,0.953621 81.40239,-0.268001 l 1.40904,-0.246439 z"
         id="path60972" />
      <path
         style="fill:#6c6c6c"
         d="M 9.7958054,176.29316 C 5.87408,173.76617 2.3524779,169.59232 1.3081077,165.07043 1.4345713,116.26606 0.94077532,67.455143 1.6560443,18.656095 0.8556954,10.75649 5.4810681,0.75559502 14.578946,1.1662938 54.17301,0.06299718 93.802099,0.79039982 133.41019,0.61996999 c 12.74396,0.40681121 25.67303,-0.68488258 38.29253,1.29518531 8.55061,3.8774914 8.41823,14.2516887 8.34647,22.2358397 0.41118,47.307904 0.12566,94.619445 0.19333,141.928995 -2.58586,5.58747 -7.1129,10.50945 -12.97188,12.4671 -51.16507,0 -102.330143,0 -153.495217,0 -1.326539,-0.75131 -2.653079,-1.50262 -3.9796176,-2.25393 z M 170.37848,168.5066 c 3.67577,-1.15041 2.96872,-4.5491 2.88917,-7.62589 -0.16407,-40.26691 -0.32815,-80.533814 -0.49223,-120.80072 -54.33333,0 -108.666664,0 -162.9999968,0 -0.051871,43.082579 -0.6937573,86.17319 -0.040535,129.25 14.0516298,1.79635 28.4308168,0.78028 42.6074478,1.20052 37.172239,-0.0996 74.360914,0.49613 111.521824,-0.46454 2.20178,-0.22137 4.66725,-0.14598 6.51432,-1.55937 z M 74.939758,116.14765 c 3.510676,-13.84451 8.670986,-27.326468 14.102088,-40.541797 5.627372,-5.859423 9.259438,3.133103 4.891363,7.79459 -3.937343,11.059186 -7.055962,22.619367 -12.356853,33.069577 -1.777782,1.28786 -5.29378,1.84644 -6.636598,-0.32237 z m -13.164335,-12.3541 c -8.027835,-1.52053 -12.934606,-11.576353 -2.523898,-14.051412 3.550384,-2.809515 18.052429,-9.49631 13.38346,-0.031 -4.052885,3.197876 -15.526815,6.934963 -4.475651,9.814483 7.44286,0.103309 7.365775,13.062059 -0.360781,7.331209 -2.031968,-0.97263 -4.026465,-2.02082 -6.02313,-3.06328 z m 36.539826,3.33443 c -4.543944,-7.78064 19.434091,-9.623942 5.247181,-14.512245 -5.459282,-0.482918 -9.016173,-10.374149 -0.98445,-7.69914 4.84317,3.596064 20.17177,5.903267 16.11033,13.772634 -5.74619,2.832241 -14.73756,10.942711 -20.373061,8.438751 z M 160.34116,23.544806 c 7.67354,-10.318958 -7.70638,-10.337869 -14.49164,-9.795442 -23.64897,-0.06406 -47.328163,-0.644524 -70.959842,0.304819 -9.635332,-0.973386 -5.803994,13.762048 2.640052,10.005058 27.12202,0.622241 54.29499,0.953621 81.40239,-0.268001 l 1.40904,-0.246439 z"
         id="path60970" />
      <path
         style="fill:#983667"
         d="M 10.017858,175.6316 C -0.02629642,170.31988 1.5508101,157.58602 1.4654426,148.01356 1.265056,103.59664 0.85627229,59.127306 1.8563914,14.743446 3.1496623,7.0495236 9.8805276,-1.6326355 18.549208,0.68400046 67.221605,0.65351602 115.9289,0.13706076 164.59828,1.0768621 c 10.59666,-0.39862346 17.72057,10.5676319 15.58501,20.3337019 0.11239,47.251674 0.34905,94.535386 -0.36787,141.776446 -0.97352,11.09771 -12.52632,16.54523 -22.55121,14.99703 -47.03092,0.78578 -94.079442,0.29492 -141.108103,0.3139 -2.466321,0.33163 -4.103763,-1.91574 -6.138249,-2.86634 z m 160.360622,-7.125 c 6.76464,-6.68223 0.92754,-19.42827 2.80457,-28.38958 -0.13588,-33.34568 -0.27175,-66.691354 -0.40763,-100.03703 -54.33333,0 -108.666664,0 -162.9999968,0 -0.051849,43.083049 -0.6937544,86.16857 -0.040535,129.25 20.5164028,2.06653 41.1921138,0.72231 61.7756158,1.19935 31.909656,-0.0957 63.868126,0.67029 95.743836,-0.79605 l 1.63667,-0.41789 z M 74.939758,116.14765 c 3.52576,-13.89104 8.663681,-27.30414 14.102088,-40.541797 7.922751,-6.079484 7.779584,6.953146 3.8031,10.916868 -3.453318,10.087321 -6.433844,20.402219 -11.26859,29.947299 -1.851962,1.27865 -5.202717,1.87762 -6.636598,-0.32237 z M 61.775423,103.79355 C 50.85297,102.33827 51.680185,89.08373 62.205111,87.884884 c 3.869856,-4.394009 16.759641,-3.71526 8.620669,3.048005 -8.430453,2.533038 -8.691504,9.141061 0.72619,9.798751 5.366335,4.2931 -0.569966,11.06546 -5.270987,5.38282 -1.511878,-0.75405 -3.00799,-1.53903 -4.50556,-2.32091 z m 36.539826,3.33443 c -3.974178,-7.307689 18.056881,-10.059623 5.247181,-14.512245 -7.727139,-0.490436 -6.177524,-12.955312 1.26489,-6.39765 8.58956,1.303607 21.86974,11.454069 7.72465,16.187725 -4.21085,2.41235 -9.07764,6.45338 -14.236721,4.72217 z M 172.27542,22.003067 c 1.17423,-5.878792 -2.23783,-15.5124779 -9.38351,-14.4230774 -49.25678,0 -98.513555,0 -147.770333,0 C 7.6298627,12.57051 8.9134306,22.453199 9.6220986,30.044766 c 3.7296394,1.213611 8.2444244,0.204387 12.2858754,0.535224 50.122483,0 100.244966,0 150.367446,0 0,-2.858974 0,-5.717949 0,-8.576923 z M 21.36757,22.19102 c -6.596502,-8.2597 12.49831,-10.064591 7.204246,-0.706253 -1.634641,2.142808 -5.232562,2.621917 -7.204246,0.706253 z m 16.08367,0.518793 c -6.944887,-7.699462 11.22753,-10.875282 6.298226,-0.92807 -1.184237,2.243817 -4.415078,2.108346 -6.298226,0.92807 z M 52.475423,22.37999 c -7.457109,-9.093966 13.442319,-9.651612 6.749813,-0.239528 -1.737468,1.80719 -4.879893,1.875685 -6.749813,0.239528 z"
         id="path60968" />
      <path
         style="fill:#642853"
         d="M 10.017858,175.6316 C 1.6425042,171.33903 1.2532593,161.42126 1.4994901,153.2117 1.2044727,108.85468 1.014766,64.486097 1.6483826,20.13236 0.96876183,12.824484 4.2029862,5.7838059 10.319272,1.6915183 c 2.448691,-2.28862808 6.33493,-0.588664 9.420029,-1.11152868 46.290786,0.14872402 92.588289,-0.35704706 138.873729,0.32228943 7.74634,-0.0936038 17.1174,0.49909185 19.84833,9.20879495 3.20836,3.563463 1.30633,8.610766 1.81406,12.958378 -0.14565,45.484171 0.38899,90.977038 -0.46985,136.453858 1.19969,9.87276 -7.33065,19.33138 -17.3661,18.55714 -44.16136,0.94348 -88.344566,0.33276 -132.515836,0.49954 -5.199048,-0.18873 -10.615742,0.37211 -15.683031,-0.2704 -1.407582,-0.89267 -2.815164,-1.78533 -4.222745,-2.67799 z m 161.188202,-6.6467 c 3.46939,-1.58245 3.32561,-4.83785 3.06164,-8.1489 -0.16409,-40.58534 -0.32819,-81.170673 -0.49228,-121.75601 -55,0 -109.999997,0 -164.9999968,0 -0.052152,43.749264 -0.6930425,87.50642 -0.040476,131.25 14.1993908,1.79703 28.7236988,0.77998 43.0470528,1.20053 38.77991,0.0899 77.55998,0.0336 116.33997,0.0495 1.02803,-0.86503 2.05606,-1.73006 3.08409,-2.59509 z M 76.337856,114.32999 c 3.758621,-12.93563 8.129597,-25.844997 13.817464,-38.059079 9.683336,-5.617263 1.431181,10.427188 0.402067,14.448281 -3.825591,8.356737 -5.118581,18.716218 -10.988777,25.713318 -1.500327,0.76314 -3.415588,-0.4256 -3.230754,-2.10252 z M 62.025423,103.01561 c -6.4049,-1.49876 -12.980732,-9.236885 -3.36787,-12.071751 3.153299,-1.847651 17.730265,-9.872871 12.915017,-1.563602 -3.794823,2.856762 -15.515846,6.484037 -5.698834,10.075835 4.759747,0.04243 10.425825,10.056058 2.625125,6.625238 -2.193236,-0.9449 -4.344464,-1.98469 -6.473438,-3.06572 z m 37.004296,3.31438 c -1.269259,-7.029432 20.243631,-9.281331 6.148801,-13.88703 -9.00273,-1.938337 -6.398688,-11.028474 1.47402,-4.660274 4.92498,1.936612 18.71757,8.754801 7.67675,12.574004 -4.46167,1.13699 -11.58578,8.69768 -15.299571,5.9733 z M 172.27542,22.003067 c 0.98012,-5.770014 -1.24019,-10.991245 -5.84615,-14.4230774 -50.4359,0 -100.871794,0 -151.307693,0 -4.581958,3.4393394 -6.83872,8.6491694 -5.8461538,14.4230774 0.5905854,2.604986 -1.233078,7.62422 1.0097898,8.576923 53.996737,0 107.993467,0 161.990207,0 0,-2.858974 0,-5.717949 0,-8.576923 z M 21.36757,22.19102 c -6.075303,-8.670313 11.934361,-10.469323 7.204246,-0.706253 -1.527213,2.127054 -5.329072,2.61647 -7.204246,0.706253 z m 16.08367,0.518793 c -6.236914,-7.386374 9.17634,-11.598211 6.599647,-1.991988 -0.370451,3.207185 -4.44151,3.394194 -6.599647,1.991988 z M 52.475423,22.37999 c -6.899663,-9.78021 12.972775,-9.917577 6.749813,-0.239528 -1.702648,1.802156 -4.913673,1.873884 -6.749813,0.239528 z"
         id="path60966" />
      <path
         style="fill:#4f1c35"
         d="M 12.461648,177.10793 C 2.1963689,172.37352 0.82457746,161.14039 1.540023,151.18986 1.246523,108.66098 0.94419221,66.118742 1.6382378,23.593984 1.5952668,15.961013 2.3860018,7.5226885 9.2235886,2.7918278 10.895262,-0.46100408 14.470695,0.78889112 17.429347,0.57998962 c 50.916599,0 101.833193,0 152.749793,0 3.90616,4.17337698 9.14917,7.98904178 9.10472,14.31179838 1.82095,26.548427 0.63255,53.211102 0.99191,79.805187 -0.3216,23.161015 0.75408,46.397025 -1.0671,69.505735 -0.93056,9.64106 -11.14026,14.7739 -20.03042,13.88065 -41.91801,0.88917 -83.860321,0.31614 -125.785906,0.11365 -6.96703,-0.26571 -14.055469,0.15019 -20.930696,-1.08908 z M 171.37105,169.5119 c 3.66949,-1.14763 2.96713,-4.54916 2.90437,-7.62095 0,-41.10365 0,-82.207305 0,-123.31096 -55.33333,0 -110.666664,0 -165.9999968,0 0,44.333333 0,88.66667 0,133 51.2589278,-0.13958 102.5245068,0.35085 153.7780468,-0.37584 3.09408,-0.30638 6.61331,0.12955 9.31758,-1.69225 z M 76.713746,115.27986 c 3.276673,-13.28441 8.277309,-26.208351 13.592121,-38.822027 7.757801,-4.124799 0.73963,10.170148 -0.251145,13.736736 -3.879427,8.508824 -5.408687,19.086121 -11.260882,26.195781 -0.863382,0.46448 -1.901024,-0.22907 -2.080094,-1.11049 z M 61.775423,102.29568 c -9.200161,-2.16329 -9.200157,-10.268093 0,-12.431384 2.811325,-2.799065 15.479032,-6.528205 7.51578,0.241451 -5.580607,2.344704 -13.039047,7.515191 -3.26578,10.187263 5.116933,0.79215 8.893225,9.13061 1.15867,4.72954 -1.829871,-0.85427 -3.621106,-1.78824 -5.40867,-2.72687 z m 37.676676,2.53431 c 2.524181,-4.70571 18.026211,-7.830462 7.228331,-12.274816 -4.91863,-0.598801 -11.057849,-9.853319 -2.31368,-5.417741 8.48277,2.427801 19.65619,11.138865 5.40867,15.158247 -2.22388,0.27175 -9.795321,6.98259 -10.323321,2.53431 z M 173.06855,22.863731 C 175.63927,12.443242 166.87772,5.2205356 156.91664,7.088314 116.87811,6.155472 76.813679,6.6157881 36.76604,6.7369191 28.254898,7.8072341 17.637709,4.977848 10.705331,10.832755 c -1.8872125,5.768973 -6.6320082,20.796019 3.444177,19.301393 52.873687,0.544224 105.750832,0.02479 158.625912,-0.05416 0.0977,-2.40542 0.19542,-4.810839 0.29313,-7.216259 z M 21.275423,19.139007 c -0.873686,-9.4070296 12.525428,-1.216035 5.451586,3.362773 -2.545607,0.279819 -6.468315,0.573424 -5.451586,-3.362773 z m 15.71406,2.82171 c -5.190985,-10.244586 13.658833,-7.648181 5.337332,0.148882 -1.73756,0.341214 -3.659064,0.611749 -5.337332,-0.148882 z m 15.28594,-2.773738 c 0.05897,-10.6582507 13.718714,0.514429 4.785012,3.277899 -2.467318,0.524673 -5.696009,0.170973 -4.785012,-3.277899 z"
         id="path60964" />
      <path
         style="fill:#0a0709"
         d="M 14.567061,177.95502 C 8.8763256,173.99989 1.3042082,168.49903 1.6860802,160.82731 1.1658548,112.03343 0.91556356,63.219925 1.9293948,14.432116 4.5457195,9.6950752 7.4815925,1.3545651 13.441466,1.295382 64.100395,0.24689882 114.79122,0.36161056 165.4533,1.1950458 c 7.63486,-1.55272416 9.90883,6.2193136 13.58852,11.6994892 1.54501,7.586858 0.6039,16.707902 1.02035,24.905857 0.19241,42.492436 0.59318,85.009068 -0.41172,127.487958 -3.95616,5.69263 -9.4593,13.26668 -17.13427,12.88098 -48.8314,0.55843 -97.677289,0.66405 -146.506482,-0.0888 z M 171.9383,170.02355 c 3.41436,-1.40042 3.80194,-4.29145 3.33159,-7.60499 -0.16482,-41.44619 -0.32964,-82.892381 -0.49447,-124.33857 -55.66667,0 -111.33333,0 -166.9999968,0 -0.052441,44.415948 -0.6923517,88.83966 -0.040419,133.25 14.3322608,1.78496 28.9818128,0.78586 43.4360278,1.20055 39.138457,0.0898 78.277078,0.0337 117.415608,0.0495 1.11722,-0.85215 2.23444,-1.70429 3.35166,-2.55644 z M 77.275423,114.60702 c 4.116951,-12.97426 8.798198,-25.818902 14.017452,-38.389898 5.371805,0.91961 -2.448689,11.738638 -2.758253,16.105935 -3.007422,7.538519 -4.93218,15.604103 -9.047719,22.640153 -0.450977,1.07352 -2.066497,0.64234 -2.21148,-0.35619 z m -15.25,-13.08912 c -5.13275,-1.66549 -11.087981,-6.747755 -2.94165,-9.221087 2.870253,-2.455061 17.804105,-8.473309 8.521338,-1.970616 -5.020171,1.742988 -12.142773,6.86746 -3.534961,9.615345 3.748543,0.764588 11.031558,7.788198 2.935839,4.074938 -1.672713,-0.80763 -3.325913,-1.65483 -4.980566,-2.49858 z m 38.442597,2.9843 c 3.35671,-4.01182 18.18319,-7.574548 7.43027,-11.936783 -4.40469,-1.223044 -11.423694,-8.615816 -2.61909,-3.973363 5.01601,2.142845 17.50419,7.538272 6.94298,11.553236 -3.22926,1.00521 -9.4706,6.41705 -11.75416,4.35691 z m 73.20041,-74.503997 c 1.11151,-7.348361 1.57636,-17.639537 -5.28,-22.2750037 C 154.88729,4.6870769 140.82309,6.0520423 127.06391,5.5997443 92.248292,5.8111268 57.409927,5.0108128 22.61,6.1982149 12.437027,4.425513 6.2498108,13.315444 7.2541576,22.643315 c -2.9512547,11.104422 9.8515374,8.259209 16.7332614,8.718728 47.582227,0.239534 95.177301,0.55576 142.754041,-0.237286 2.26064,-0.307646 4.97333,0.223955 6.92697,-1.126554 z M 21.607294,20.002449 c 0.352709,-10.295704 11.096273,2.000956 2.106088,1.453063 -0.822385,-0.218945 -1.734136,-0.620146 -2.106088,-1.453063 z M 37.459001,18.82999 c 2.296648,-8.703449 10.656481,5.362452 1.143261,2.669363 -1.443119,0.07468 -1.33489,-1.830933 -1.143261,-2.669363 z m 15.816422,0.218615 c 3.242169,-9.9306898 9.362563,7.404321 0.108394,1.256933 z"
         id="path60962" />
    </g>
  </g>
</svg>
