<?xml version="1.0" encoding="UTF-8" standalone="no"?>
<!-- Created with Inkscape (http://www.inkscape.org/) -->

<svg
   width="60"
   height="60"
   viewBox="0 0 15.875 15.875"
   version="1.1"
   id="svg5"
   inkscape:version="1.1 (c68e22c387, 2021-05-23)"
   sodipodi:docname="checkbox-selected.svg"
   xmlns:inkscape="http://www.inkscape.org/namespaces/inkscape"
   xmlns:sodipodi="http://sodipodi.sourceforge.net/DTD/sodipodi-0.dtd"
   xmlns:xlink="http://www.w3.org/1999/xlink"
   xmlns="http://www.w3.org/2000/svg"
   xmlns:svg="http://www.w3.org/2000/svg">
  <sodipodi:namedview
     id="namedview7"
     pagecolor="#ffffff"
     bordercolor="#666666"
     borderopacity="1.0"
     inkscape:pageshadow="2"
     inkscape:pageopacity="0"
     inkscape:pagecheckerboard="0"
     inkscape:document-units="mm"
     showgrid="false"
     units="px"
     inkscape:zoom="8.6947253"
     inkscape:cx="22.944946"
     inkscape:cy="35.596294"
     inkscape:window-width="1440"
     inkscape:window-height="837"
     inkscape:window-x="-8"
     inkscape:window-y="-8"
     inkscape:window-maximized="1"
     inkscape:current-layer="layer1" />
  <defs
     id="defs2">
    <inkscape:path-effect
       effect="spiro"
       id="path-effect18831"
       is_visible="true"
       lpeversion="1" />
    <inkscape:path-effect
       effect="spiro"
       id="path-effect18794"
       is_visible="true"
       lpeversion="1" />
    <inkscape:path-effect
       effect="spiro"
       id="path-effect18757"
       is_visible="true"
       lpeversion="1" />
    <inkscape:path-effect
       effect="spiro"
       id="path-effect18653"
       is_visible="true"
       lpeversion="1" />
    <linearGradient
       inkscape:collect="always"
       id="linearGradient18228">
      <stop
         style="stop-color:#00a100;stop-opacity:1;"
         offset="0"
         id="stop18224" />
      <stop
         style="stop-color:#00a100;stop-opacity:0;"
         offset="1"
         id="stop18226" />
    </linearGradient>
    <inkscape:path-effect
       effect="fillet_chamfer"
       id="path-effect3353"
       is_visible="true"
       lpeversion="1"
       satellites_param="F,0,0,1,0,3.175,0,1 @ F,0,0,1,0,3.175,0,1 @ F,0,0,1,0,3.175,0,1 @ F,0,0,1,0,3.175,0,1"
       unit="px"
       method="auto"
       mode="F"
       radius="12"
       chamfer_steps="1"
       flexible="false"
       use_knot_distance="true"
       apply_no_radius="true"
       apply_with_radius="true"
       only_selected="false"
       hide_knots="false" />
    <inkscape:path-effect
       effect="fillet_chamfer"
       id="path-effect1322"
       is_visible="true"
       lpeversion="1"
       satellites_param="F,0,0,1,0,3.175,0,1 @ F,0,0,1,0,3.175,0,1 @ F,0,0,1,0,3.175,0,1 @ F,0,0,1,0,3.175,0,1"
       unit="px"
       method="auto"
       mode="F"
       radius="8"
       chamfer_steps="1"
       flexible="false"
       use_knot_distance="true"
       apply_no_radius="true"
       apply_with_radius="true"
       only_selected="false"
       hide_knots="false" />
    <inkscape:path-effect
       effect="fillet_chamfer"
       id="path-effect1142"
       is_visible="true"
       lpeversion="1"
       satellites_param="F,0,0,1,0,3.175,0,1 @ F,0,0,1,0,3.175,0,1 @ F,0,0,1,0,3.175,0,1 @ F,0,0,1,0,3.175,0,1"
       unit="px"
       method="auto"
       mode="F"
       radius="8"
       chamfer_steps="1"
       flexible="false"
       use_knot_distance="true"
       apply_no_radius="true"
       apply_with_radius="true"
       only_selected="false"
       hide_knots="false" />
    <radialGradient
       inkscape:collect="always"
       xlink:href="#linearGradient18228"
       id="radialGradient18230"
       cx="8.459631"
       cy="8.7030745"
       fx="8.459631"
       fy="8.7030745"
       r="8.1269674"
       gradientUnits="userSpaceOnUse"
       gradientTransform="matrix(-2.4510541,-0.66687279,0.48846052,-1.788918,24.874208,29.851099)"
       spreadMethod="reflect" />
  </defs>
  <g
     inkscape:label="Layer 1"
     inkscape:groupmode="layer"
     id="layer1">
    <path
       style="fill:url(#radialGradient18230);fill-opacity:1;stroke:#000000;stroke-width:0.065;stroke-linecap:butt;stroke-linejoin:round;stroke-miterlimit:4;stroke-dasharray:none;stroke-opacity:1;paint-order:normal"
       id="rect1074"
       width="15.788104"
       height="15.759974"
       x="0.021421723"
       y="0.049551919"
       sodipodi:type="rect"
       d="m 3.1964217,0.04955192 h 9.4381043 a 3.175,3.175 45 0 1 3.175,3.17499998 v 9.4099731 a 3.175,3.175 135 0 1 -3.175,3.175 H 3.1964217 a 3.175,3.175 45 0 1 -3.17499998,-3.175 V 3.2245519 A 3.175,3.175 135 0 1 3.1964217,0.04955192 Z"
       inkscape:path-effect="#path-effect1142" />
    <path
       style="opacity:0.358;fill:none;fill-opacity:1;stroke:#00ffff;stroke-width:0.0649999;stroke-linecap:butt;stroke-linejoin:round;stroke-miterlimit:4;stroke-dasharray:none;stroke-opacity:0;paint-order:normal"
       d="M 1.582377,9.1290983 C 1.3229976,9.4659504 1.1644665,9.8794596 1.1321827,10.303376 c -0.032284,0.423916 0.0618,0.856663 0.267177,1.228909 0.2053772,0.372246 0.5212848,0.682608 0.8971099,0.88136 0.3758251,0.198753 0.8101707,0.285157 1.2334485,0.245371 0.040572,-0.0038 0.081913,-0.0087 0.1217213,0 0.047029,0.0103 0.088691,0.03939 0.1193978,0.07647 0.030707,0.03708 0.051103,0.0818 0.065044,0.12788 0.027882,0.09216 0.030998,0.190412 0.059001,0.282536 0.042615,0.140196 0.1432949,0.260212 0.2699081,0.333969 0.1266131,0.07376 0.2775595,0.102209 0.4234163,0.08818 0.1458568,-0.01403 0.2864344,-0.06939 0.407838,-0.151441 C 5.1176481,13.33456 5.2202808,13.226384 5.3033667,13.105687 5.4695383,12.864294 5.5564775,12.577755 5.623394,12.292438 5.69031,12.00712 5.7401059,11.716342 5.842623,11.441799 5.9787405,11.077277 6.2052662,10.750658 6.4754866,10.470679 6.7457071,10.1907 7.0592807,9.9555969 7.3862881,9.7447093 8.0403029,9.3229339 8.7539043,8.9926344 9.3725409,8.5204918 9.5101146,8.4154957 9.6447614,8.3013148 9.7377048,8.1553277 9.8291462,8.0116998 9.8757068,7.8442293 9.9086053,7.6771718 c 0.032898,-0.1670575 0.053461,-0.3368427 0.098872,-0.5009414 0.04541,-0.1640986 0.118143,-0.3250766 0.239514,-0.4444896 0.06069,-0.059706 0.133086,-0.1081415 0.213131,-0.1371313 0.08005,-0.02899 0.167822,-0.038098 0.251353,-0.021659 0.02042,0.00402 0.04062,0.00954 0.06136,0.011284 0.02074,0.00174 0.04251,-5.929e-4 0.06037,-0.011284 0.01046,-0.00626 0.01926,-0.015276 0.02527,-0.025883 0.006,-0.010607 0.0092,-0.022785 0.0092,-0.034978 0,-0.012192 -0.0032,-0.02437 -0.0092,-0.034978 -0.006,-0.010607 -0.01481,-0.019619 -0.02527,-0.025883 0.03992,-0.041222 0.0805,-0.081803 0.121721,-0.1217213 C 11.32672,5.9694646 11.754684,5.6587679 12.05041,5.2340163 12.228191,4.9786699 12.353275,4.686806 12.415574,4.3819672 l 0.121721,-0.1217213 c 0.03738,0.019557 0.08434,0.019557 0.121721,0 0.01954,-0.010221 0.03635,-0.025366 0.04932,-0.043195 0.01297,-0.017828 0.02215,-0.038294 0.02776,-0.059616 0.01122,-0.042644 0.0082,-0.08799 -0.0015,-0.1310052 -0.01941,-0.08603 -0.06469,-0.1655477 -0.07554,-0.253069 -0.01233,-0.099409 0.02208,-0.2010592 0.08107,-0.2820177 0.05899,-0.080958 0.140977,-0.1428175 0.228587,-0.1913835 0.175219,-0.097132 0.376002,-0.1453439 0.542391,-0.2569268 0.202967,-0.136112 0.340579,-0.3654656 0.365164,-0.6086065"
       id="path18651"
       inkscape:path-effect="#path-effect18653"
       inkscape:original-d="m 1.582377,9.1290983 c 0.7161267,1.0713397 1.2024327,2.4122557 1.9475411,3.5299177 0.022505,0.03376 0.093031,-0.02869 0.1217213,0 0.090673,0.09067 0.1746658,0.418109 0.2434426,0.486886 0.5037355,0.503735 1.6711909,-1.400114 1.9475408,-1.704099 C 6.6904962,10.509142 8.2906805,9.0614218 9.3725409,8.5204918 9.5265075,8.4435084 9.6422188,8.2985569 9.7377048,8.1553277 10.081248,7.6400127 10.273542,7.0108844 10.711475,6.5729508 c 0.02869,-0.02869 0.09303,0.02869 0.121722,0 0.02869,-0.02869 0,-0.081148 0,-0.1217213 0.04057,-0.040574 0.07398,-0.089893 0.121721,-0.1217213 0.509856,-0.3399041 0.737908,-0.5591167 1.095492,-1.0954919 0.19937,-0.2990559 0.174933,-0.5667029 0.365164,-0.8520491 0.04057,-0.040574 0.08115,-0.081148 0.121721,-0.1217213 0.04057,0 0.09303,0.02869 0.121721,0 0.11476,-0.1147601 -0.07258,-0.3417242 0,-0.4868852 0.173376,-0.3467507 0.619827,-0.4206978 0.852049,-0.730328 0.126105,-0.1681396 0.02108,-0.6086065 0.365164,-0.6086065" />
    <path
       style="opacity:0.358;fill:none;fill-opacity:1;stroke:#ffffff;stroke-width:0.0649999;stroke-linecap:butt;stroke-linejoin:round;stroke-miterlimit:4;stroke-dasharray:none;stroke-opacity:0;paint-order:normal"
       d="m 1.582377,9.1290983 c -0.00207,0.6262705 0.2363384,1.2503447 0.6554421,1.7157167 0.096574,0.107236 0.2048401,0.210198 0.2582098,0.34428 0.03398,0.08537 0.043397,0.178119 0.061364,0.268228 0.017966,0.09011 0.046865,0.18218 0.1107764,0.248192 0.045484,0.04698 0.107266,0.07787 0.17214,0.08607 -0.00225,0.119654 0.027777,0.239762 0.08607,0.34428 0.050415,0.09039 0.120861,0.168305 0.17214,0.25821 0.081234,0.142423 0.1105703,0.307492 0.1599012,0.463856 0.024666,0.07818 0.054807,0.15522 0.098283,0.224722 0.043477,0.0695 0.1009637,0.131487 0.1721654,0.172121 0.059744,0.0341 0.1280483,0.05241 0.1967692,0.05546 0.068721,0.003 0.1378069,-0.009 0.2024281,-0.03257 0.1292426,-0.04716 0.2385334,-0.139266 0.3243431,-0.246802 0.1716193,-0.215072 0.2535287,-0.487081 0.395369,-0.722857 0.2413659,-0.401214 0.6421133,-0.677292 0.9467697,-1.03284 0.3214762,-0.375178 0.5328018,-0.8354 0.8606996,-1.204979 C 6.9059739,9.5621651 7.5403426,9.2633043 8.0905767,8.8652063 8.5198286,8.5546398 8.9027967,8.1783271 9.2094861,7.7462966 9.4829807,7.3610273 9.702826,6.924504 10.070186,6.6273872 c 0.13905,-0.112462 0.296058,-0.2019214 0.430063,-0.3203499 0.067,-0.059214 0.128203,-0.1258479 0.174753,-0.202194 0.04655,-0.076346 0.07812,-0.1628445 0.08374,-0.2520857 0.0036,-0.057288 -0.0034,-0.1148395 0,-0.17214 0.0076,-0.1273536 0.06677,-0.2475227 0.14705,-0.3466738 0.08028,-0.099151 0.181031,-0.179544 0.283299,-0.2558161 0.115196,-0.085914 0.233724,-0.1679287 0.340641,-0.2639496 0.106917,-0.096021 0.202807,-0.2075234 0.261849,-0.3385399 0.03527,-0.078266 0.05684,-0.1621629 0.09234,-0.2403234 0.01775,-0.03908 0.03908,-0.076786 0.06637,-0.1099151 0.02729,-0.033129 0.06076,-0.06164 0.0995,-0.080111 0.02933,-0.013984 0.0611,-0.022004 0.0915,-0.033463 0.03041,-0.011459 0.06044,-0.027147 0.08064,-0.052607 0.01385,-0.017464 0.02237,-0.038796 0.02636,-0.060726 0.004,-0.02193 0.0036,-0.044485 8.8e-4,-0.066609 -0.0054,-0.044248 -0.02002,-0.086884 -0.02724,-0.1308749 -0.02032,-0.1237093 0.02096,-0.2545502 0.10313,-0.3492358 0.08217,-0.094686 0.202623,-0.1533089 0.32722,-0.1671841 0.164076,-0.018272 0.335139,0.041499 0.452132,0.1579779 0.116993,0.1164788 0.177517,0.2872773 0.159969,0.4514319 -0.01755,0.1641546 -0.11281,0.3182994 -0.251781,0.407415 -0.138972,0.089116 -0.318804,0.1113747 -0.47531,0.058832"
       id="path18755"
       inkscape:path-effect="#path-effect18757"
       inkscape:original-d="m 1.582377,9.1290983 c 0.3526378,0.100013 0.5087291,1.4222917 0.6554421,1.7157167 0.071521,0.143042 0.1986498,0.205307 0.2582098,0.34428 0.071477,0.166781 0.082115,0.358876 0.17214,0.51642 0.031829,0.0557 0.1336482,0.03475 0.17214,0.08607 0.2624323,0.06093 0.033168,0.238476 0.08607,0.34428 0.046261,0.09252 0.1358185,0.161353 0.17214,0.25821 0.073799,0.196796 0.1315606,0.761103 0.4303498,0.860699 0.5822434,0.194082 0.8549243,-0.610788 1.1189094,-0.946769 0.2885469,-0.367242 0.6992395,-0.636791 0.9467697,-1.03284 0.268111,-0.428977 0.4982736,-0.842553 0.8606996,-1.204979 C 6.9436797,9.5817535 7.5314198,9.2690417 8.0905767,8.8652063 8.5012108,8.5686372 8.875479,8.1280192 9.2094861,7.7462966 9.5154378,7.3966376 9.7708425,6.9865993 10.070186,6.6273872 c 0.404591,-0.4855091 -0.02871,0.3012684 0.68856,-0.7746296 0.03183,-0.047743 -0.02566,-0.1208177 0,-0.17214 0.0514,-0.1027962 0.348369,-0.5000144 0.430349,-0.6024899 0.177424,-0.2217793 0.425066,-0.38071 0.60249,-0.6024895 0.08626,-0.1078199 0.185128,-0.3572685 0.25821,-0.4303498 0.04536,-0.045363 0.136554,-0.032692 0.17214,-0.08607 0.04774,-0.071614 -0.05003,-0.1881719 0,-0.2582097 0.130241,-0.1823382 0.320285,-0.7116014 0.43035,-0.5164199 0.177122,0.3140964 -0.07666,0.7171047 -0.11499,1.0756572" />
    <path
       style="opacity:0.358;fill:none;fill-opacity:1;stroke:#ffffff;stroke-width:0.0649999;stroke-linecap:butt;stroke-linejoin:round;stroke-miterlimit:4;stroke-dasharray:none;stroke-opacity:0;paint-order:normal"
       d="m 1.582377,9.1290983 c 0.03888,0.8297789 0.027814,1.6618947 -0.033118,2.4903467 -0.00656,0.08914 -0.013683,0.178818 -0.00448,0.26772 0.0092,0.0889 0.035843,0.178022 0.090551,0.2487 0.037416,0.04834 0.086342,0.08622 0.1334948,0.125117 0.047153,0.0389 0.093874,0.08032 0.1247151,0.133093 0.044422,0.07601 0.051514,0.167615 0.053811,0.255628 0.0023,0.08801 0.00127,0.178384 0.032259,0.260792 0.036544,0.09717 0.1134391,0.172584 0.1721399,0.258209 0.058608,0.08549 0.1004404,0.18336 0.1721399,0.25821 0.075654,0.07898 0.1814531,0.126784 0.290256,0.137871 0.1088028,0.01109 0.2200244,-0.0135 0.3172549,-0.06357 0.09723,-0.05007 0.1807082,-0.124946 0.2465769,-0.212252 0.065869,-0.08731 0.1145074,-0.18686 0.1495011,-0.290476 0.069987,-0.207234 0.085649,-0.428266 0.1007465,-0.646476 C 3.4433231,12.1338 3.4589481,11.91277 3.5288695,11.705514 3.6014455,11.49039 3.7307384,11.297317 3.8859218,11.131596 4.0411042,10.965876 4.2220081,10.826189 4.4092492,10.697791 4.7837315,10.440994 5.1911478,10.222828 5.5084776,9.8980457 5.721752,9.6797627 5.8886852,9.4185891 6.1109674,9.2094861 6.4248792,8.9141863 6.8352183,8.7357145 7.1438071,8.4348565 7.4237553,8.1619216 7.6033594,7.8049782 7.8323667,7.4880869 8.0587061,7.1748873 8.3336863,6.9005632 8.6069963,6.6273872 8.7092802,6.5251534 8.8143888,6.4185006 8.8652063,6.2831074 c 0.031956,-0.085139 0.04126,-0.1790774 0.08607,-0.25821 0.042669,-0.075353 0.1148242,-0.1309694 0.1939373,-0.1661799 0.079113,-0.03521 0.1653037,-0.051517 0.2512366,-0.062203 0.085933,-0.010686 0.1725752,-0.016046 0.2579147,-0.030737 0.08534,-0.014691 0.1702684,-0.039232 0.2436808,-0.085159 0.1309773,-0.08194 0.2118623,-0.221996 0.2916813,-0.354277 0.03991,-0.06614 0.08102,-0.1319595 0.131106,-0.1907705 0.05009,-0.058811 0.109753,-0.1107357 0.179703,-0.1435121 0.08225,-0.038539 0.175194,-0.049213 0.25821,-0.08607 0.0936,-0.041555 0.169873,-0.11432 0.236135,-0.1924005 0.06626,-0.078081 0.124592,-0.1628488 0.194214,-0.2379493 0.03584,-0.038659 0.07464,-0.074725 0.107148,-0.1162259 0.03251,-0.041501 0.05888,-0.089623 0.06499,-0.1419842 0.0033,-0.028525 5.62e-4,-0.057357 0,-0.08607 -0.0033,-0.1700802 0.07586,-0.3398913 0.208296,-0.4466589 0.132435,-0.1067676 0.315181,-0.1481268 0.480683,-0.1087882 0.165502,0.039339 0.310093,0.1585036 0.380322,0.313443 0.07023,0.1549394 0.06454,0.3422214 -0.01496,0.4926129"
       id="path18792"
       inkscape:path-effect="#path-effect18794"
       inkscape:original-d="M 1.582377,9.1290983 C 0.67987224,10.723857 0.95869571,10.241463 1.549259,11.619445 c 0.3592442,0.838237 -0.039689,0.01338 0.08607,0.51642 0.2295199,0.91808 -0.08607,-0.54511 0.2582099,0.25821 0.068745,0.160404 0.038127,0.34862 0.08607,0.51642 0.028418,0.09946 0.1394283,0.160075 0.1721399,0.258209 0.00609,0.01827 0.1124022,0.303014 0.1721399,0.25821 C 2.825737,13.050528 3.1398358,12.181 3.5288685,11.705515 4.0926125,11.016495 4.8223773,10.446926 5.5084776,9.8980457 5.750869,9.7041328 5.8885161,9.4001589 6.1109674,9.2094861 6.4377133,8.9294183 6.8077603,8.7036938 7.1438071,8.4348565 7.456594,8.1846268 7.5952463,7.8042475 7.8323667,7.4880869 8.0608751,7.1834091 8.3624247,6.9208731 8.6069963,6.6273872 c 0.091834,-0.1102013 0.1786382,-0.2249223 0.25821,-0.3442798 0.050326,-0.075488 0,-0.2295199 0.08607,-0.25821 C 9.8525326,5.7244786 7.9803748,6.9590649 9.8980457,5.6806176 10.300347,5.4124171 10.183321,5.3092722 10.500536,4.992058 c 0.06415,-0.064153 0.187365,-0.029394 0.25821,-0.08607 0.158413,-0.1267312 0.308628,-0.2680547 0.430349,-0.4303498 0.06207,-0.082755 0.125879,-0.1656877 0.17214,-0.2582101 0.01283,-0.025662 -0.02835,-0.090494 0,-0.08607 0.356918,0.0557 0.702893,0.1670724 1.054339,0.2506088" />
    <path
       style="fill:#ffffff;fill-opacity:1;stroke:#000000;stroke-width:0.065;stroke-linecap:butt;stroke-linejoin:round;stroke-miterlimit:4;stroke-dasharray:none;paint-order:normal"
       id="rect1074-5"
       width="12.722254"
       height="12.904834"
       x="1.6831422"
       y="1.3760928"
       inkscape:path-effect="#path-effect1322"
       sodipodi:type="rect"
       d="m 4.8581422,1.3760928 h 6.3722538 a 3.175,3.175 45 0 1 3.175,3.175 v 6.5548342 a 3.175,3.175 135 0 1 -3.175,3.175 H 4.8581422 a 3.175,3.175 45 0 1 -3.175,-3.175 V 4.5510928 a 3.175,3.175 135 0 1 3.175,-3.175 z" />
    <path
       style="opacity:1;fill:none;fill-opacity:1;stroke:#000000;stroke-width:1.41705;stroke-linecap:round;stroke-linejoin:round;stroke-miterlimit:4;stroke-dasharray:none;stroke-opacity:1;paint-order:normal"
       d="M 4.4995462,8.349429 6.8774317,11.456675 14.405396,1.3760928"
       id="path20410"
       sodipodi:nodetypes="ccc" />
  </g>
</svg>
